# xmcd CD database file
#
# Track frame offsets:
#	150
#	34172
#	50898
#	71361
#
# Disc length: 1250 seconds
#
# Revision: 0
# Processed by: cddbd v1.5.1PL0 Copyright (c) Steve Scherf et al.
# Submitted via: CDex 1.60beta1
#
DISCID=3404e004
DTITLE=Politmia - Compilation 0
DYEAR=1900
DGENRE=ワールド (一般)
TTITLE0=エコー
TTITLE1=流星
TTITLE2=昼食
TTITLE3=Gravel
EXTD=
EXTT0=
EXTT1=
EXTT2=
EXTT3=
PLAYORDER=
